<?xml version="1.0" encoding="UTF-8" standalone="no"?>
<!-- License: MIT. Made by teenyicons: https://github.com/teenyicons/teenyicons -->

<svg
   width="800px"
   height="800px"
   viewBox="0 0 15 15"
   version="1.1"
   id="svg2"
   sodipodi:docname="group_filled.svg"
   inkscape:version="1.3 (0e150ed, 2023-07-21)"
   xmlns:inkscape="http://www.inkscape.org/namespaces/inkscape"
   xmlns:sodipodi="http://sodipodi.sourceforge.net/DTD/sodipodi-0.dtd"
   xmlns="http://www.w3.org/2000/svg"
   xmlns:svg="http://www.w3.org/2000/svg">
  <defs
     id="defs2" />
  <sodipodi:namedview
     id="namedview2"
     pagecolor="#505050"
     bordercolor="#ffffff"
     borderopacity="1"
     inkscape:showpageshadow="0"
     inkscape:pageopacity="0"
     inkscape:pagecheckerboard="1"
     inkscape:deskcolor="#505050"
     inkscape:zoom="0.85625"
     inkscape:cx="400"
     inkscape:cy="400.58394"
     inkscape:window-width="1392"
     inkscape:window-height="1027"
     inkscape:window-x="0"
     inkscape:window-y="25"
     inkscape:window-maximized="0"
     inkscape:current-layer="svg2" />
  <path
     d="M4.5 0C3.67157 0 3 0.671573 3 1.5V8.5C3 9.32843 3.67157 10 4.5 10H13.5C14.3284 10 15 9.32843 15 8.5V3.5C15 2.67157 14.3284 2 13.5 2H9.70711L7.70711 0H4.5Z"
     fill="#000000"
     id="path1"
     style="fill:#ffffff;fill-opacity:1;stroke:none" />
  <path
     d="M12 11H4.5C3.11929 11 2 9.88071 2 8.5V5H1.5C0.671573 5 0 5.67157 0 6.5V13.5C0 14.3284 0.671573 15 1.5 15H10.5C11.3284 15 12 14.3284 12 13.5V11Z"
     fill="#000000"
     id="path2"
     style="fill:#ffffff;fill-opacity:1" />
</svg>
