<?xml version="1.0" encoding="UTF-8" standalone="no"?>
<!-- License: MIT. Made by teenyicons: https://github.com/teenyicons/teenyicons -->

<svg
   width="800px"
   height="800px"
   viewBox="0 0 15 15"
   version="1.1"
   id="svg1"
   sodipodi:docname="group.svg"
   inkscape:version="1.3 (0e150ed, 2023-07-21)"
   xmlns:inkscape="http://www.inkscape.org/namespaces/inkscape"
   xmlns:sodipodi="http://sodipodi.sourceforge.net/DTD/sodipodi-0.dtd"
   xmlns="http://www.w3.org/2000/svg"
   xmlns:svg="http://www.w3.org/2000/svg">
  <defs
     id="defs1" />
  <sodipodi:namedview
     id="namedview1"
     pagecolor="#505050"
     bordercolor="#ffffff"
     borderopacity="1"
     inkscape:showpageshadow="0"
     inkscape:pageopacity="0"
     inkscape:pagecheckerboard="1"
     inkscape:deskcolor="#505050"
     inkscape:zoom="0.85625"
     inkscape:cx="400"
     inkscape:cy="400"
     inkscape:window-width="1920"
     inkscape:window-height="1080"
     inkscape:window-x="0"
     inkscape:window-y="0"
     inkscape:window-maximized="0"
     inkscape:current-layer="svg1" />
  <path
     d="M3.5 8.5V1.5C3.5 0.947715 3.94772 0.5 4.5 0.5H7.5L9.5 2.5H13.5C14.0523 2.5 14.5 2.94772 14.5 3.5V8.5C14.5 9.05228 14.0523 9.5 13.5 9.5H4.5M3.5 8.5C3.5 9.05229 3.94772 9.5 4.5 9.5M3.5 8.5V5.5H1.5C0.947715 5.5 0.5 5.94772 0.5 6.5V13.5C0.5 14.0523 0.947715 14.5 1.5 14.5H10.5C11.0523 14.5 11.5 14.0523 11.5 13.5V9.5H4.5"
     stroke="#000000"
     id="path1"
     style="stroke:#ffffff;stroke-opacity:1;fill:none" />
</svg>
